<svg width="42" height="42" viewBox="0 0 42 42" fill="none" xmlns="http://www.w3.org/2000/svg">
<path d="M12.9814 28.248C12.473 28.248 12.0755 28.1299 11.7891 27.8936C11.5026 27.6572 11.3594 27.3421 11.3594 26.9482C11.3594 26.5902 11.4632 26.2428 11.6709 25.9062C11.8786 25.5697 12.1364 25.2402 12.4443 24.918C12.7594 24.5957 13.071 24.2734 13.3789 23.9512C13.6152 23.7077 13.7979 23.389 13.9268 22.9951C14.0628 22.6012 14.1631 22.1823 14.2275 21.7383C14.292 21.2943 14.3385 20.8646 14.3672 20.4492C14.3887 19.0742 14.5355 17.8496 14.8076 16.7754C15.0798 15.7012 15.5059 14.7988 16.0859 14.0684C16.6732 13.3379 17.443 12.8008 18.3955 12.457C18.596 11.7552 18.9648 11.1608 19.502 10.6738C20.0391 10.1868 20.7015 9.94336 21.4893 9.94336C22.2842 9.94336 22.9502 10.1868 23.4873 10.6738C24.0244 11.1608 24.3932 11.7552 24.5938 12.457C25.5462 12.8008 26.3125 13.3379 26.8926 14.0684C27.4727 14.7988 27.8988 15.7012 28.1709 16.7754C28.4502 17.8496 28.6006 19.0742 28.6221 20.4492C28.6507 20.8646 28.6973 21.2943 28.7617 21.7383C28.8262 22.1823 28.9229 22.6012 29.0518 22.9951C29.1878 23.389 29.374 23.7077 29.6104 23.9512C29.9183 24.2734 30.2262 24.5957 30.5342 24.918C30.8493 25.2402 31.1107 25.5697 31.3184 25.9062C31.526 26.2428 31.6299 26.5902 31.6299 26.9482C31.6299 27.3421 31.4867 27.6572 31.2002 27.8936C30.9137 28.1299 30.5163 28.248 30.0078 28.248H12.9814ZM21.4893 32.5557C20.8877 32.5557 20.347 32.4232 19.8672 32.1582C19.3874 31.8932 19.0007 31.5459 18.707 31.1162C18.4134 30.6865 18.2451 30.221 18.2021 29.7197H24.7871C24.737 30.221 24.5651 30.6865 24.2715 31.1162C23.985 31.5459 23.6019 31.8932 23.1221 32.1582C22.6423 32.4232 22.098 32.5557 21.4893 32.5557Z" fill="black"/>
</svg>
