<svg width="24" height="25" viewBox="0 0 24 25" fill="none" xmlns="http://www.w3.org/2000/svg">
<path d="M10.9453 24.6162C10.6113 24.6162 10.3301 24.5225 10.1016 24.335C9.87304 24.1533 9.7207 23.8955 9.64453 23.5615L9.07324 21.1709C8.88574 21.1064 8.70117 21.0361 8.51953 20.96C8.34375 20.8896 8.17089 20.8164 8.00097 20.7402L5.90918 22.0322C5.62793 22.2139 5.33789 22.29 5.03906 22.2607C4.74609 22.2314 4.48535 22.0996 4.25683 21.8652L2.78027 20.3887C2.54589 20.1602 2.41406 19.8936 2.38476 19.5889C2.35546 19.2842 2.43457 18.9912 2.62207 18.71L3.90527 16.6357C3.8291 16.4658 3.75586 16.293 3.68554 16.1172C3.61523 15.9414 3.55078 15.7656 3.49218 15.5898L1.08398 15.0186C0.755856 14.9424 0.498043 14.79 0.310543 14.5615C0.128902 14.333 0.0380821 14.0518 0.0380821 13.7178V11.6348C0.0380821 11.3066 0.128902 11.0312 0.310543 10.8086C0.498043 10.5801 0.755856 10.4248 1.08398 10.3428L3.47461 9.77148C3.53906 9.57812 3.60644 9.39355 3.67675 9.21777C3.74707 9.04199 3.81738 8.875 3.88769 8.7168L2.5957 6.60742C2.41992 6.32031 2.34375 6.0332 2.36718 5.74609C2.39062 5.45313 2.52246 5.18945 2.76269 4.95508L4.26562 3.46973C4.48828 3.24121 4.74023 3.1123 5.02148 3.08301C5.30859 3.04785 5.59277 3.11523 5.87402 3.28516L7.99218 4.59473C8.16211 4.50684 8.33789 4.42773 8.51953 4.35742C8.70117 4.28711 8.88574 4.21973 9.07324 4.15527L9.64453 1.75586C9.7207 1.42188 9.87304 1.16113 10.1016 0.973633C10.3301 0.786133 10.6113 0.692383 10.9453 0.692383H13.0547C13.3887 0.692383 13.6699 0.786133 13.8984 0.973633C14.1269 1.16113 14.2793 1.42188 14.3555 1.75586L14.9268 4.17285C15.1201 4.2373 15.3047 4.30469 15.4805 4.375C15.6621 4.44531 15.832 4.52148 15.9902 4.60352L18.126 3.28516C18.4014 3.11523 18.6797 3.05078 18.9609 3.0918C19.2422 3.12695 19.5 3.25293 19.7344 3.46973L21.2373 4.95508C21.4717 5.18945 21.6006 5.45313 21.624 5.74609C21.6475 6.0332 21.5713 6.32031 21.3955 6.60742L20.1123 8.7168C20.1768 8.875 20.2441 9.04199 20.3144 9.21777C20.3906 9.39355 20.4609 9.57812 20.5254 9.77148L22.916 10.3428C23.25 10.4248 23.5078 10.5801 23.6894 10.8086C23.8711 11.0312 23.9619 11.3066 23.9619 11.6348V13.7178C23.9619 14.0518 23.8711 14.333 23.6894 14.5615C23.5078 14.79 23.25 14.9424 22.916 15.0186L20.5078 15.5898C20.4492 15.7656 20.3848 15.9414 20.3144 16.1172C20.2441 16.293 20.1709 16.4658 20.0947 16.6357L21.3779 18.71C21.5596 18.9912 21.6357 19.2842 21.6064 19.5889C21.583 19.8936 21.4541 20.1602 21.2197 20.3887L19.7344 21.8652C19.5059 22.0996 19.2422 22.2314 18.9434 22.2607C18.6504 22.29 18.3633 22.2139 18.082 22.0322L15.9902 20.7402C15.8262 20.8164 15.6533 20.8896 15.4717 20.96C15.2959 21.0361 15.1143 21.1064 14.9268 21.1709L14.3555 23.5615C14.2793 23.8955 14.1269 24.1533 13.8984 24.335C13.6699 24.5225 13.3887 24.6162 13.0547 24.6162H10.9453ZM12 16.6533C12.7383 16.6533 13.4092 16.4746 14.0127 16.1172C14.6162 15.7539 15.0967 15.2705 15.4541 14.667C15.8174 14.0576 15.999 13.3867 15.999 12.6543C15.999 11.916 15.8174 11.2451 15.4541 10.6416C15.0967 10.0381 14.6162 9.55762 14.0127 9.2002C13.4092 8.83691 12.7383 8.65527 12 8.65527C11.2676 8.65527 10.5967 8.83691 9.9873 9.2002C9.38379 9.55762 8.90039 10.0381 8.53711 10.6416C8.17968 11.2451 8.00097 11.916 8.00097 12.6543C8.00097 13.3867 8.17968 14.0576 8.53711 14.667C8.90039 15.2705 9.38379 15.7539 9.9873 16.1172C10.5967 16.4746 11.2676 16.6533 12 16.6533Z" fill="black" fill-opacity="0.3"/>
</svg>
