<svg width="22" height="25" viewBox="0 0 22 25" fill="none" xmlns="http://www.w3.org/2000/svg">
<path d="M4.46972 24.8975C3.29199 24.8975 2.39843 24.5986 1.78906 24.001C1.18554 23.4033 0.883785 22.5186 0.883785 21.3467V10.1582C0.883785 8.99219 1.18554 8.10742 1.78906 7.50391C2.39843 6.90039 3.29199 6.59863 4.46972 6.59863H17.5391C18.7168 6.59863 19.6074 6.90039 20.2109 7.50391C20.8144 8.10742 21.1162 8.99219 21.1162 10.1582V21.3467C21.1162 22.5127 20.8144 23.3945 20.2109 23.9922C19.6074 24.5957 18.7168 24.8975 17.5391 24.8975H4.46972ZM11.0088 0.71875C10.751 0.71875 10.5312 0.80957 10.3496 0.991211C10.1738 1.16699 10.0859 1.37793 10.0859 1.62402V13.2344L10.165 14.9043L9.50586 14.1484L7.73925 12.2852C7.57519 12.1035 7.36718 12.0127 7.11523 12.0127C6.88671 12.0127 6.69336 12.0889 6.53515 12.2412C6.37695 12.3936 6.29785 12.584 6.29785 12.8125C6.29785 12.9297 6.31836 13.0381 6.35937 13.1377C6.40625 13.2314 6.47363 13.3193 6.56152 13.4014L10.3144 17.04C10.4258 17.1514 10.5371 17.2305 10.6484 17.2773C10.7656 17.3242 10.8857 17.3477 11.0088 17.3477C11.126 17.3477 11.2402 17.3242 11.3516 17.2773C11.4687 17.2305 11.583 17.1514 11.6943 17.04L15.4473 13.4014C15.5352 13.3193 15.5996 13.2314 15.6406 13.1377C15.6875 13.0381 15.7109 12.9297 15.7109 12.8125C15.7109 12.584 15.6289 12.3936 15.4648 12.2412C15.3066 12.0889 15.1133 12.0127 14.8848 12.0127C14.6387 12.0127 14.4336 12.1035 14.2695 12.2852L12.4941 14.1484L11.8525 14.8955L11.9228 13.2344V1.62402C11.9228 1.37793 11.832 1.16699 11.6504 0.991211C11.4746 0.80957 11.2607 0.71875 11.0088 0.71875Z" fill="black" fill-opacity="0.3"/>
</svg>
