<svg width="22" height="27" viewBox="0 0 22 27" fill="none" xmlns="http://www.w3.org/2000/svg">
<path d="M0.664057 22.7861V5.63867C0.664057 4.64844 0.930658 3.89844 1.46386 3.38867C2.00292 2.87305 2.73535 2.5918 3.66113 2.54492C4.96777 2.47461 6.24511 2.37207 7.49316 2.2373C8.74121 2.09668 9.95117 1.92969 11.123 1.73633C12.2949 1.53711 13.417 1.32031 14.4893 1.08594C15.5498 0.845703 16.3789 0.974609 16.9766 1.47266C17.5742 1.96484 17.873 2.75879 17.873 3.85449V20.7471C17.873 21.7021 17.6943 22.4258 17.3369 22.918C16.9795 23.416 16.3906 23.7793 15.5703 24.0078C14.2109 24.3652 12.8809 24.6523 11.5801 24.8691C10.2852 25.0918 9.00488 25.2617 7.73925 25.3789C6.47363 25.502 5.20507 25.5928 3.93359 25.6514C2.89648 25.7041 2.09081 25.4785 1.5166 24.9746C0.948236 24.4707 0.664057 23.7412 0.664057 22.7861ZM4.97949 8.30176C6.59667 8.21387 8.09081 8.06738 9.46191 7.8623C10.833 7.65137 12.2012 7.39941 13.5664 7.10645C13.8125 7.04785 13.9766 6.95996 14.0586 6.84277C14.1465 6.71973 14.1904 6.58203 14.1904 6.42969C14.1904 6.25977 14.126 6.11328 13.9971 5.99023C13.874 5.86719 13.6924 5.83203 13.4521 5.88477C12.1396 6.16602 10.8037 6.40918 9.44433 6.61426C8.08496 6.81934 6.59374 6.96289 4.9707 7.04492C4.75976 7.06836 4.60156 7.1416 4.49609 7.26465C4.39062 7.38184 4.33788 7.52539 4.33788 7.69531C4.33788 7.87109 4.39648 8.02051 4.51367 8.14355C4.63671 8.26074 4.79199 8.31348 4.97949 8.30176ZM4.97949 12.0459C6.59667 11.9521 8.09081 11.8027 9.46191 11.5977C10.833 11.3867 12.2012 11.1348 13.5664 10.8418C13.8125 10.7891 13.9766 10.7041 14.0586 10.5869C14.1465 10.4639 14.1904 10.3262 14.1904 10.1738C14.1904 9.99805 14.126 9.84863 13.9971 9.72559C13.874 9.60254 13.6924 9.56738 13.4521 9.62012C12.1396 9.90137 10.8037 10.1445 9.44433 10.3496C8.08496 10.5547 6.59374 10.7012 4.9707 10.7891C4.75976 10.8008 4.60156 10.8711 4.49609 11C4.39062 11.123 4.33788 11.2666 4.33788 11.4307C4.33788 11.6064 4.39648 11.7559 4.51367 11.8789C4.63671 11.9961 4.79199 12.0518 4.97949 12.0459ZM4.97949 15.7812C6.59667 15.6875 8.09081 15.5381 9.46191 15.333C10.833 15.1279 12.2012 14.8789 13.5664 14.5859C13.8125 14.5273 13.9766 14.4395 14.0586 14.3223C14.1465 14.1992 14.1904 14.0615 14.1904 13.9092C14.1904 13.7334 14.126 13.584 13.9971 13.4609C13.874 13.3379 13.6924 13.2998 13.4521 13.3467C12.1396 13.6338 10.8037 13.8799 9.44433 14.085C8.08496 14.29 6.59374 14.4395 4.9707 14.5332C4.75976 14.5449 4.60156 14.6123 4.49609 14.7354C4.39062 14.8584 4.33788 15.002 4.33788 15.166C4.33788 15.3477 4.39648 15.5 4.51367 15.623C4.63671 15.7402 4.79199 15.793 4.97949 15.7812ZM4.97949 19.5078C5.89941 19.4609 6.69628 19.3965 7.37011 19.3145C8.0498 19.2324 8.70898 19.1445 9.34765 19.0508C9.54101 19.0215 9.68456 18.9453 9.77831 18.8223C9.87206 18.6934 9.91894 18.5527 9.91894 18.4004C9.91894 18.2363 9.85449 18.0898 9.72558 17.9609C9.59667 17.8262 9.40917 17.7822 9.16308 17.8291C8.583 17.917 7.96484 17.999 7.30859 18.0752C6.6582 18.1455 5.8789 18.2041 4.9707 18.251C4.75976 18.2686 4.60156 18.3389 4.49609 18.4619C4.39062 18.5791 4.33788 18.7227 4.33788 18.8926C4.33788 19.0684 4.39648 19.2178 4.51367 19.3408C4.63671 19.4639 4.79199 19.5195 4.97949 19.5078ZM9.61132 26.6709C10.6367 26.5186 11.6797 26.3398 12.7402 26.1348C13.8066 25.9355 14.8818 25.7012 15.9658 25.4316C16.7041 25.2324 17.3252 24.9395 17.8291 24.5527C18.333 24.166 18.7139 23.6621 18.9717 23.041C19.2353 22.4199 19.3672 21.6553 19.3672 20.7471V3.90723C19.3672 3.7373 19.3613 3.57031 19.3496 3.40625C19.3379 3.24219 19.3203 3.06641 19.2969 2.87891C19.9648 3.04883 20.4717 3.40625 20.8174 3.95117C21.1631 4.49023 21.3359 5.19922 21.3359 6.07812V23.085C21.3359 24.2744 21.04 25.168 20.4482 25.7656C19.8564 26.3691 18.9717 26.6709 17.7939 26.6709H9.61132Z" fill="black" fill-opacity="0.3"/>
</svg>
