<svg width="42" height="42" viewBox="0 0 42 42" fill="none" xmlns="http://www.w3.org/2000/svg">
<path d="M14.4795 31.1377C13.3551 31.1377 12.5101 30.8584 11.9443 30.2998C11.3857 29.7484 11.1064 28.9212 11.1064 27.8184V14.6914C11.1064 13.5814 11.3857 12.7507 11.9443 12.1992C12.5101 11.6406 13.3551 11.3613 14.4795 11.3613H27.5098C28.6341 11.3613 29.4756 11.6406 30.0342 12.1992C30.5999 12.7578 30.8828 13.5885 30.8828 14.6914V27.8184C30.8828 28.9212 30.5999 29.7484 30.0342 30.2998C29.4756 30.8584 28.6341 31.1377 27.5098 31.1377H14.4795ZM17.8203 26.9697L21 24.6494L24.1797 26.9697C24.4017 27.1344 24.6094 27.1989 24.8027 27.1631C25.0033 27.1273 25.1501 27.0199 25.2432 26.8408C25.3434 26.6618 25.3506 26.4469 25.2646 26.1963L24.0078 22.4473L27.2197 20.1484C27.4202 20.0124 27.5348 19.8441 27.5635 19.6436C27.5921 19.4359 27.542 19.2533 27.4131 19.0957C27.2842 18.9382 27.0801 18.863 26.8008 18.8701L22.8584 18.9023L21.6553 15.1318C21.5765 14.8812 21.4476 14.7165 21.2686 14.6377C21.0895 14.5518 20.9105 14.5518 20.7314 14.6377C20.5524 14.7165 20.4235 14.8812 20.3447 15.1318L19.1523 18.9023L15.21 18.8701C14.9307 18.863 14.7266 18.9382 14.5977 19.0957C14.4688 19.2461 14.4186 19.4251 14.4473 19.6328C14.4759 19.8333 14.5905 20.0088 14.791 20.1592L18.0029 22.4473L16.7461 26.1963C16.6602 26.4469 16.6637 26.6618 16.7568 26.8408C16.8571 27.0199 17.0039 27.1273 17.1973 27.1631C17.3978 27.1989 17.6055 27.1344 17.8203 26.9697Z" fill="black"/>
</svg>
